<svg height="580" width="580" xmlns="http://www.w3.org/2000/svg"><path d="m66.275 1.768c-41.335 0-64.571 21.371-64.571 65.036v450.123c0 40.844 20.895 62.229 62.192 62.229h452.024c41.307 0 62.229-20.315 62.229-62.229v-450.123c0-42.601-20.922-65.036-63.521-65.036-.004 0-448.495-.143-448.353 0z" fill="#111" stroke="#eee" stroke-width="3.408"/><g fill="none" stroke="#fff" stroke-linecap="round"><path d="m538.75588 90.924252-49.40937 27.996378-63.323 269.64938v57.12917h-288.87671" stroke-linejoin="round" stroke-width="28.173355"/><path d="m479.06925 164.57688h-422.872756l49.667746 193.82583 319.53078 44.5419z" stroke-linejoin="round" stroke-width="28.173355"/><path d="m128.06871 165.73536v177.47173" stroke-width="18.782236"/><path d="m86.424707 243.00115h358.767383" stroke-width="18.782236"/><path d="m-184.12699 498.68445a29.153439 29.153439 0 1 1 0-.00553" stroke-linejoin="round" stroke-width="20" transform="matrix(1.0862609 0 0 1.1358574 373.78132 -86.8033)"/><path d="m-184.12699 498.68445a29.153439 29.153439 0 1 1 0-.00553" stroke-linejoin="round" stroke-width="20" transform="matrix(1.0862609 0 0 1.1358574 618.76176 -84.803297)"/><path d="m215.1525 165.73536v197.51559" stroke-width="18.782236"/><path d="m306.2363 165.73536v206.42397" stroke-width="18.782236"/><path d="m395.3201 165.73536v219.78654" stroke-width="18.782236"/><path d="m104.24147 322.08495h323.13386" stroke-width="18.782236"/></g></svg>